# xmcd CD database file
#
# Track frame offsets:
#	150
#	24381
#	53284
#	71811
#	87519
#	108519
#	121881
#	139320
#	161164
#	179962
#	201146
#	215030
#	241756
#	274360
#	291910
#
# Disc length: 4180 seconds
#
# Revision: 0
# Processed by: cddbd v1.5.1PL0 Copyright (c) Steve Scherf et al.
# Submitted via: CDex 1.51
#
DISCID=ed10520f
DTITLE=Various Artist - Laidback
DYEAR=2003
DGENRE=New Age
TTITLE0=Leftfield - Fanfare Of Life
TTITLE1=FC Kahuna - Hayling
TTITLE2=Deadly Avenger - Lopez Pt.2
TTITLE3=Little People - Gravitas
TTITLE4=Ninety-9 - Willow
TTITLE5=Nemo - Faded
TTITLE6=The Soulsavers - Rumblefish
TTITLE7=Blue States - Your Girl
TTITLE8=Flunk - Blue Monday
TTITLE9=World Of Apples - 15 Months
TTITLE10=Streetlife Originals: Chanson
TTITLE11=Stargazer - Deeper
TTITLE12=Iz and Diz - Mouth
TTITLE13=Amino People - Plano Loop
TTITLE14=Tiefschwarz - Bye Bye Baby
EXTD=YEAR: 2003
EXTT0=
EXTT1=
EXTT2=
EXTT3=
EXTT4=
EXTT5=
EXTT6=
EXTT7=
EXTT8=
EXTT9=
EXTT10=
EXTT11=
EXTT12=
EXTT13=
EXTT14=
PLAYORDER=
